<mxfile host="app.diagrams.net" agent="Mozilla/5.0 (Macintosh; Intel Mac OS X 10_15_7) AppleWebKit/537.36 (KHTML, like Gecko) Chrome/126.0.0.0 Safari/537.36" version="24.7.6">
  <diagram name="Page-1" id="zuQ5zFpVsTP_VhGujqjf">
    <mxGraphModel dx="1910" dy="1828" grid="1" gridSize="10" guides="1" tooltips="1" connect="1" arrows="1" fold="1" page="1" pageScale="1" pageWidth="827" pageHeight="1169" math="0" shadow="0">
      <root>
        <mxCell id="0" />
        <mxCell id="1" parent="0" />
        <mxCell id="KR-K13Xm9BUACoEBSjNK-1" value="" style="ellipse;whiteSpace=wrap;html=1;aspect=fixed;" parent="1" vertex="1">
          <mxGeometry x="80" y="70" width="380" height="380" as="geometry" />
        </mxCell>
        <mxCell id="KR-K13Xm9BUACoEBSjNK-2" value="" style="ellipse;whiteSpace=wrap;html=1;aspect=fixed;" parent="1" vertex="1">
          <mxGeometry x="125" y="115" width="290" height="290" as="geometry" />
        </mxCell>
        <mxCell id="KR-K13Xm9BUACoEBSjNK-3" value="A" style="ellipse;whiteSpace=wrap;html=1;aspect=fixed;fillColor=#fff2cc;strokeColor=#d6b656;" parent="1" vertex="1">
          <mxGeometry x="220" y="75" width="40" height="40" as="geometry" />
        </mxCell>
        <mxCell id="KR-K13Xm9BUACoEBSjNK-4" value="S3" style="ellipse;whiteSpace=wrap;html=1;aspect=fixed;fillColor=#dae8fc;strokeColor=#6c8ebf;" parent="1" vertex="1">
          <mxGeometry x="140" y="115" width="40" height="40" as="geometry" />
        </mxCell>
        <mxCell id="KR-K13Xm9BUACoEBSjNK-5" value="H" style="ellipse;whiteSpace=wrap;html=1;aspect=fixed;fillColor=#fff2cc;strokeColor=#d6b656;" parent="1" vertex="1">
          <mxGeometry x="90" y="190" width="40" height="40" as="geometry" />
        </mxCell>
        <mxCell id="KR-K13Xm9BUACoEBSjNK-6" value="G" style="ellipse;whiteSpace=wrap;html=1;aspect=fixed;fillColor=#fff2cc;strokeColor=#d6b656;" parent="1" vertex="1">
          <mxGeometry x="85" y="280" width="40" height="40" as="geometry" />
        </mxCell>
        <mxCell id="KR-K13Xm9BUACoEBSjNK-7" value="S2" style="ellipse;whiteSpace=wrap;html=1;aspect=fixed;fillColor=#dae8fc;strokeColor=#6c8ebf;" parent="1" vertex="1">
          <mxGeometry x="110" y="330" width="40" height="40" as="geometry" />
        </mxCell>
        <mxCell id="KR-K13Xm9BUACoEBSjNK-8" value="F" style="ellipse;whiteSpace=wrap;html=1;aspect=fixed;fillColor=#fff2cc;strokeColor=#d6b656;" parent="1" vertex="1">
          <mxGeometry x="160" y="380" width="40" height="40" as="geometry" />
        </mxCell>
        <mxCell id="KR-K13Xm9BUACoEBSjNK-9" value="D" style="ellipse;whiteSpace=wrap;html=1;aspect=fixed;fillColor=#fff2cc;strokeColor=#d6b656;" parent="1" vertex="1">
          <mxGeometry x="360" y="365" width="40" height="40" as="geometry" />
        </mxCell>
        <mxCell id="KR-K13Xm9BUACoEBSjNK-10" value="S0" style="ellipse;whiteSpace=wrap;html=1;aspect=fixed;fillColor=#dae8fc;strokeColor=#6c8ebf;" parent="1" vertex="1">
          <mxGeometry x="414" y="280" width="40" height="40" as="geometry" />
        </mxCell>
        <mxCell id="KR-K13Xm9BUACoEBSjNK-11" value="C" style="ellipse;whiteSpace=wrap;html=1;aspect=fixed;fillColor=#fff2cc;strokeColor=#d6b656;" parent="1" vertex="1">
          <mxGeometry x="410" y="190" width="40" height="40" as="geometry" />
        </mxCell>
        <mxCell id="KR-K13Xm9BUACoEBSjNK-12" value="B" style="ellipse;whiteSpace=wrap;html=1;aspect=fixed;fillColor=#fff2cc;strokeColor=#d6b656;" parent="1" vertex="1">
          <mxGeometry x="370" y="120" width="40" height="40" as="geometry" />
        </mxCell>
        <mxCell id="KR-K13Xm9BUACoEBSjNK-13" value="E" style="ellipse;whiteSpace=wrap;html=1;aspect=fixed;fillColor=#fff2cc;strokeColor=#d6b656;" parent="1" vertex="1">
          <mxGeometry x="280" y="405" width="40" height="40" as="geometry" />
        </mxCell>
        <mxCell id="KR-K13Xm9BUACoEBSjNK-14" value="&lt;table style=&quot;border-collapse: collapse; width: 65pt;&quot; width=&quot;87&quot; cellspacing=&quot;0&quot; cellpadding=&quot;0&quot; border=&quot;0&quot;&gt;&lt;colgroup&gt;&lt;col style=&quot;width: 65pt;&quot; width=&quot;87&quot;&gt;&lt;/colgroup&gt;&lt;tbody&gt;&lt;tr style=&quot;height: 16pt;&quot; height=&quot;21&quot;&gt;&lt;td style=&quot;padding-top: 1px; padding-right: 1px; padding-left: 1px; font-family: &amp;quot;Aptos Narrow&amp;quot;, sans-serif; vertical-align: bottom; border: none; text-wrap: nowrap; height: 16pt; width: 65pt;&quot; width=&quot;87&quot; height=&quot;21&quot;&gt;&lt;font style=&quot;font-size: 18px;&quot;&gt;Server&lt;/font&gt;&lt;/td&gt;&lt;/tr&gt;&lt;tr style=&quot;height: 16pt;&quot; height=&quot;21&quot;&gt;&lt;td style=&quot;padding-top: 1px; padding-right: 1px; padding-left: 1px; font-family: &amp;quot;Aptos Narrow&amp;quot;, sans-serif; vertical-align: bottom; border: none; text-wrap: nowrap; height: 16pt;&quot; height=&quot;21&quot;&gt;&lt;font size=&quot;3&quot;&gt;S0 -----&amp;gt; B,C&lt;/font&gt;&lt;/td&gt;&lt;/tr&gt;&lt;tr style=&quot;height: 16pt;&quot; height=&quot;21&quot;&gt;&lt;td style=&quot;padding-top: 1px; padding-right: 1px; padding-left: 1px; font-family: &amp;quot;Aptos Narrow&amp;quot;, sans-serif; vertical-align: bottom; border: none; text-wrap: nowrap; height: 16pt;&quot; height=&quot;21&quot;&gt;&lt;font size=&quot;3&quot;&gt;S1------&amp;gt; D,E&lt;/font&gt;&lt;/td&gt;&lt;/tr&gt;&lt;tr style=&quot;height: 16pt;&quot; height=&quot;21&quot;&gt;&lt;td style=&quot;padding-top: 1px; padding-right: 1px; padding-left: 1px; font-family: &amp;quot;Aptos Narrow&amp;quot;, sans-serif; vertical-align: bottom; border: none; text-wrap: nowrap; height: 16pt;&quot; height=&quot;21&quot;&gt;&lt;font size=&quot;3&quot;&gt;S2-----&amp;gt; F&lt;/font&gt;&lt;/td&gt;&lt;/tr&gt;&lt;tr style=&quot;height: 16pt;&quot; height=&quot;21&quot;&gt;&lt;td style=&quot;padding-top: 1px; padding-right: 1px; padding-left: 1px; font-family: &amp;quot;Aptos Narrow&amp;quot;, sans-serif; vertical-align: bottom; border: none; text-wrap: nowrap; height: 16pt;&quot; height=&quot;21&quot;&gt;&lt;font size=&quot;3&quot;&gt;S3------&amp;gt;G, H&lt;/font&gt;&lt;/td&gt;&lt;/tr&gt;&lt;/tbody&gt;&lt;/table&gt;&lt;font size=&quot;3&quot; style=&quot;&quot;&gt;S4 -------&amp;gt; A&lt;/font&gt;&lt;div&gt;&lt;br&gt;&lt;/div&gt;" style="text;html=1;align=center;verticalAlign=middle;whiteSpace=wrap;rounded=0;" parent="1" vertex="1">
          <mxGeometry x="500" y="60" width="125" height="160" as="geometry" />
        </mxCell>
        <mxCell id="KR-K13Xm9BUACoEBSjNK-15" value="&lt;h2 style=&quot;box-sizing: inherit; margin: 1.72em 0px -0.31em; font-family: sohne, &amp;quot;Helvetica Neue&amp;quot;, Helvetica, Arial, sans-serif; color: rgb(36, 36, 36); line-height: 24px; font-size: 20px; text-align: start; background-color: rgb(255, 255, 255);&quot; data-selectable-paragraph=&quot;&quot; class=&quot;qv nw gt be nx qw qx dx oa qy qz dz od pa ra rb rc pe rd re rf pi rg rh ri rj bj&quot; id=&quot;6609&quot;&gt;Adding A new Server&lt;/h2&gt;" style="text;html=1;align=center;verticalAlign=middle;whiteSpace=wrap;rounded=0;" parent="1" vertex="1">
          <mxGeometry x="160" y="220" width="240" height="30" as="geometry" />
        </mxCell>
        <mxCell id="KR-K13Xm9BUACoEBSjNK-16" value="&lt;font style=&quot;font-size: 18px;&quot;&gt;Data Stored in S1, now passed to S2&lt;/font&gt;" style="text;html=1;align=center;verticalAlign=middle;whiteSpace=wrap;rounded=0;" parent="1" vertex="1">
          <mxGeometry x="650" y="140" width="130" height="30" as="geometry" />
        </mxCell>
        <mxCell id="KR-K13Xm9BUACoEBSjNK-20" value="S4" style="ellipse;whiteSpace=wrap;html=1;aspect=fixed;fillColor=#dae8fc;strokeColor=#6c8ebf;" parent="1" vertex="1">
          <mxGeometry x="300" y="80" width="40" height="40" as="geometry" />
        </mxCell>
        <mxCell id="KR-K13Xm9BUACoEBSjNK-21" value="" style="endArrow=classic;html=1;rounded=0;entryX=0.416;entryY=-0.009;entryDx=0;entryDy=0;entryPerimeter=0;" parent="1" target="KR-K13Xm9BUACoEBSjNK-1" edge="1">
          <mxGeometry width="50" height="50" relative="1" as="geometry">
            <mxPoint x="350" y="-40" as="sourcePoint" />
            <mxPoint x="410" y="30" as="targetPoint" />
          </mxGeometry>
        </mxCell>
        <mxCell id="KR-K13Xm9BUACoEBSjNK-22" value="&lt;font style=&quot;font-size: 18px;&quot;&gt;Now, S4 Node is handling A&lt;/font&gt;" style="text;html=1;align=center;verticalAlign=middle;whiteSpace=wrap;rounded=0;" parent="1" vertex="1">
          <mxGeometry x="330" y="-50" width="180" height="30" as="geometry" />
        </mxCell>
        <mxCell id="KR-K13Xm9BUACoEBSjNK-25" value="&lt;span style=&quot;color: rgb(107, 107, 107); font-family: sohne, &amp;quot;Helvetica Neue&amp;quot;, Helvetica, Arial, sans-serif; background-color: rgb(255, 255, 255);&quot;&gt;&lt;font style=&quot;font-size: 18px;&quot;&gt;&lt;b&gt;Adding a new server S4 to the system. Only part of the data stored on S0 has to be transferred to S4.&lt;/b&gt;&lt;/font&gt;&lt;/span&gt;" style="text;html=1;align=center;verticalAlign=middle;whiteSpace=wrap;rounded=0;" parent="1" vertex="1">
          <mxGeometry x="60" y="490" width="700" height="30" as="geometry" />
        </mxCell>
        <mxCell id="KR-K13Xm9BUACoEBSjNK-26" value="" style="rounded=0;whiteSpace=wrap;html=1;fillOpacity=0;" parent="1" vertex="1">
          <mxGeometry x="-80" y="-110" width="910" height="670" as="geometry" />
        </mxCell>
        <mxCell id="MXKSCigsQ62gZRMotizQ-1" value="S1" style="ellipse;whiteSpace=wrap;html=1;aspect=fixed;fillColor=#dae8fc;strokeColor=#6c8ebf;" vertex="1" parent="1">
          <mxGeometry x="220" y="405" width="40" height="40" as="geometry" />
        </mxCell>
      </root>
    </mxGraphModel>
  </diagram>
</mxfile>
